<?xml version="1.0" encoding="UTF-8" standalone="no"?>
<!-- Created with Inkscape (http://www.inkscape.org/) -->

<svg
   width="400"
   height="400"
   viewBox="0 0 105.83333 105.83333"
   version="1.1"
   id="svg1"
   xml:space="preserve"
   inkscape:version="1.3.2 (091e20e, 2023-11-25, custom)"
   sodipodi:docname="other.svg"
   xmlns:inkscape="http://www.inkscape.org/namespaces/inkscape"
   xmlns:sodipodi="http://sodipodi.sourceforge.net/DTD/sodipodi-0.dtd"
   xmlns="http://www.w3.org/2000/svg"
   xmlns:svg="http://www.w3.org/2000/svg"><sodipodi:namedview
     id="namedview1"
     pagecolor="#ffffff"
     bordercolor="#000000"
     borderopacity="0.25"
     inkscape:showpageshadow="2"
     inkscape:pageopacity="0.0"
     inkscape:pagecheckerboard="0"
     inkscape:deskcolor="#d1d1d1"
     inkscape:document-units="mm"
     inkscape:zoom="0.9789084"
     inkscape:cx="118.49934"
     inkscape:cy="147.6134"
     inkscape:window-width="1920"
     inkscape:window-height="991"
     inkscape:window-x="-9"
     inkscape:window-y="-9"
     inkscape:window-maximized="1"
     inkscape:current-layer="layer1" /><defs
     id="defs1"><clipPath
       clipPathUnits="userSpaceOnUse"
       id="clipPath6"><path
         style="fill:#f1d7be;fill-opacity:1;stroke:none;stroke-width:0.655725;stroke-linecap:round;stroke-linejoin:bevel;stroke-dasharray:none;paint-order:markers fill stroke"
         d="m -190.76127,178.22026 c 0,0 1.90341,-21.19098 10.7043,-30.92638 8.80089,-9.7354 31.44706,-12.15013 38.64085,-19.11158 7.1938,-6.96143 2.50644,-21.66184 2.50644,-21.66184 h 32.57943 c 0,0 -4.68737,14.70041 2.50642,21.66184 7.1938,6.96145 29.83998,9.37618 38.64086,19.11158 8.800902,9.7354 10.704312,30.92638 10.704312,30.92638 z"
         id="path7"
         sodipodi:nodetypes="czzcczzc" /></clipPath><clipPath
       clipPathUnits="userSpaceOnUse"
       id="clipPath8"><path
         style="fill:#f1d7be;fill-opacity:1;stroke:none;stroke-width:0.655725;stroke-linecap:round;stroke-linejoin:bevel;stroke-dasharray:none;paint-order:markers fill stroke"
         d="m -190.76127,178.22026 c 0,0 1.90341,-21.19098 10.7043,-30.92638 8.80089,-9.7354 31.44706,-12.15013 38.64085,-19.11158 7.1938,-6.96143 2.50644,-21.66184 2.50644,-21.66184 h 32.57943 c 0,0 -4.68737,14.70041 2.50642,21.66184 7.1938,6.96145 29.83998,9.37618 38.64086,19.11158 8.800902,9.7354 10.704312,30.92638 10.704312,30.92638 z"
         id="path9"
         sodipodi:nodetypes="czzcczzc" /></clipPath><clipPath
       clipPathUnits="userSpaceOnUse"
       id="clipPath10"><path
         style="fill:#f1d7be;fill-opacity:1;stroke:none;stroke-width:0.655725;stroke-linecap:round;stroke-linejoin:bevel;stroke-dasharray:none;paint-order:markers fill stroke"
         d="m -190.76127,178.22026 c 0,0 1.90341,-21.19098 10.7043,-30.92638 8.80089,-9.7354 31.44706,-12.15013 38.64085,-19.11158 7.1938,-6.96143 2.50644,-21.66184 2.50644,-21.66184 h 32.57943 c 0,0 -4.68737,14.70041 2.50642,21.66184 7.1938,6.96145 29.83998,9.37618 38.64086,19.11158 8.800902,9.7354 10.704312,30.92638 10.704312,30.92638 z"
         id="path11"
         sodipodi:nodetypes="czzcczzc" /></clipPath><clipPath
       clipPathUnits="userSpaceOnUse"
       id="clipPath13"><path
         style="fill:#f1d7be;fill-opacity:1;stroke:none;stroke-width:0.655725;stroke-linecap:round;stroke-linejoin:bevel;stroke-dasharray:none;paint-order:markers fill stroke"
         d="m -190.76127,178.22026 c 0,0 1.90341,-21.19098 10.7043,-30.92638 8.80089,-9.7354 31.44706,-12.15013 38.64085,-19.11158 7.1938,-6.96143 2.50644,-21.66184 2.50644,-21.66184 h 32.57943 c 0,0 -4.68737,14.70041 2.50642,21.66184 7.1938,6.96145 29.83998,9.37618 38.64086,19.11158 8.800902,9.7354 10.704312,30.92638 10.704312,30.92638 z"
         id="path14"
         sodipodi:nodetypes="czzcczzc" /></clipPath><clipPath
       clipPathUnits="userSpaceOnUse"
       id="clipPath24"><path
         id="path25"
         style="fill:#f1d7be;fill-opacity:1;stroke:none;stroke-width:0.600001;stroke-linecap:round;stroke-linejoin:bevel;paint-order:markers fill stroke"
         d="m -156.63927,66.960774 c 0,-18.788341 15.23096,-34.019302 34.0193,-34.019305 18.78835,-3e-6 34.019312,15.230962 34.019312,34.019305 0,0 0.897368,55.477896 -34.019302,55.883326 -34.91667,0.40543 -34.01931,-55.883326 -34.01931,-55.883326 z"
         sodipodi:nodetypes="csczc" /></clipPath></defs><g
     inkscape:label="Layer 1"
     inkscape:groupmode="layer"
     id="layer1"><g
       id="g34"
       transform="matrix(0.62339138,0,0,0.62339138,129.3569,10.418425)"><path
         style="fill:#f1d7be;fill-opacity:1;stroke:none;stroke-width:0.655724;stroke-linecap:round;stroke-linejoin:bevel;stroke-dasharray:none;paint-order:markers fill stroke"
         d="m -190.76127,142.44715 c 0,0 1.90341,-21.19098 10.7043,-30.92638 8.80089,-9.7354 31.44706,-12.15013 38.64085,-19.11158 7.1938,-6.96143 2.50644,-21.66184 2.50644,-21.66184 h 32.57943 c 0,0 -4.68737,14.70041 2.50642,21.66184 7.193801,6.96145 29.839981,9.37618 38.640861,19.11158 8.8009,9.7354 10.70431,30.92638 10.70431,30.92638 z"
         id="path1"
         sodipodi:nodetypes="czzcczzc" /><path
         style="fill:#f9f9f9;fill-opacity:1;stroke:none;stroke-width:0.600001;stroke-linecap:round;stroke-linejoin:bevel;stroke-dasharray:none;paint-order:markers fill stroke"
         d="m -147.73552,123.84556 c 13.62371,23.68132 43.31358,19.74147 56.762548,0 l -6.30695,80.07915 c 0,0 -61.349418,1.72007 -61.731658,-0.19112 -0.38224,-1.9112 11.27606,-79.88803 11.27606,-79.88803 z"
         id="path5"
         sodipodi:nodetypes="cccsc"
         clip-path="url(#clipPath10)"
         transform="translate(0,-35.77311)" /><path
         style="fill:#00b8b8;fill-opacity:1;stroke:none;stroke-width:0.600001;stroke-linecap:round;stroke-linejoin:bevel;stroke-dasharray:none;paint-order:markers fill stroke"
         d="m -190.76127,178.22026 h 49.94328 v -62.10327 l -57.30022,4.97027 z"
         id="path3"
         clip-path="url(#clipPath6)"
         transform="translate(0,-35.77311)" /><path
         style="fill:#00b8b8;fill-opacity:1;stroke:none;stroke-width:0.600001;stroke-linecap:round;stroke-linejoin:bevel;stroke-dasharray:none;paint-order:markers fill stroke"
         d="m -54.478659,178.22026 h -49.943281 v -62.10327 l 57.300221,4.97027 z"
         id="path4"
         clip-path="url(#clipPath8)"
         transform="translate(0,-35.77311)" /><path
         style="opacity:0.209449;fill:#000000;fill-opacity:1;stroke:none;stroke-width:0.600001;stroke-linecap:round;stroke-linejoin:bevel;stroke-dasharray:none;paint-order:markers fill stroke"
         d="m -152.32239,116.11699 105.689187,47.29034 7.644786,-49.11776 -128.241313,-18.920845 z"
         id="path12"
         clip-path="url(#clipPath13)"
         transform="translate(0,-35.77311)" /><path
         id="path2"
         style="fill:#f1d7be;fill-opacity:1;stroke:none;stroke-width:0.600001;stroke-linecap:round;stroke-linejoin:bevel;paint-order:markers fill stroke"
         d="m -156.63927,31.187665 c 0,-18.788342 15.23096,-34.0193025 34.0193,-34.0193055 18.78835,-2e-6 34.019311,15.2309605 34.019311,34.0193055 0,0 0.89737,55.477895 -34.019301,55.883325 -34.91667,0.40543 -34.01931,-55.883325 -34.01931,-55.883325 z"
         sodipodi:nodetypes="csczc" /><ellipse
         style="opacity:1;fill:#f1d7be;fill-opacity:1;stroke:none;stroke-width:0.600001;stroke-linecap:round;stroke-linejoin:bevel;stroke-dasharray:none;paint-order:markers fill stroke"
         id="path22"
         cx="-90.251747"
         cy="49.298042"
         rx="4.8651128"
         ry="7.8719182" /><ellipse
         style="opacity:1;fill:#f1d7be;fill-opacity:1;stroke:none;stroke-width:0.600001;stroke-linecap:round;stroke-linejoin:bevel;stroke-dasharray:none;paint-order:markers fill stroke"
         id="ellipse25"
         cx="-155.02652"
         cy="49.298042"
         rx="4.8651128"
         ry="7.8719182" /></g><g
       id="g35"
       transform="matrix(0.6159009,0,0,0.6159009,-127.79088,-108.1158)"><path
         style="opacity:1;fill:#d4aa00;fill-opacity:1;stroke:none;stroke-width:0.600001;stroke-linecap:round;stroke-linejoin:bevel;stroke-dasharray:none;paint-order:markers fill stroke"
         d="m -155.02652,434.7973 c 0,0 -2.16921,28.13859 -8.35683,49.86662 -4.05422,14.23652 -18.56259,57.73376 -18.56259,57.73376 l 116.694164,-3.3397 c 0,0 -12.065773,-24.0728 -15.796464,-36.93205 -6.132693,-21.13866 5.961318,-50.63462 -10.556536,-65.18156 -15.874264,-13.98014 -63.421744,-2.14707 -63.421744,-2.14707 z"
         id="path34"
         sodipodi:nodetypes="csccssc" /><path
         style="fill:#f1d7be;fill-opacity:1;stroke:none;stroke-width:0.655724;stroke-linecap:round;stroke-linejoin:bevel;stroke-dasharray:none;paint-order:markers fill stroke"
         d="m -190.76127,562.20175 c 0,0 1.90341,-21.19098 10.7043,-30.92638 8.80089,-9.7354 31.44706,-12.15013 38.64085,-19.11158 7.1938,-6.96143 2.50644,-21.66184 2.50644,-21.66184 h 32.57943 c 0,0 -4.68737,14.70041 2.50642,21.66184 7.193801,6.96145 29.839981,9.37618 38.640861,19.11158 8.8009,9.7354 10.70431,30.92638 10.70431,30.92638 z"
         id="path26"
         sodipodi:nodetypes="czzcczzc" /><path
         style="fill:#f9f9f9;fill-opacity:1;stroke:none;stroke-width:0.600001;stroke-linecap:round;stroke-linejoin:bevel;stroke-dasharray:none;paint-order:markers fill stroke"
         d="m -147.73552,123.84556 c 13.62371,23.68132 43.31358,19.74147 56.762548,0 l -6.30695,80.07915 c 0,0 -61.349418,1.72007 -61.731658,-0.19112 -0.38224,-1.9112 11.27606,-79.88803 11.27606,-79.88803 z"
         id="path27"
         sodipodi:nodetypes="cccsc"
         clip-path="url(#clipPath10)"
         transform="translate(0,383.98149)" /><path
         style="fill:#d98fed;fill-opacity:1;stroke:none;stroke-width:0.600001;stroke-linecap:round;stroke-linejoin:bevel;stroke-dasharray:none;paint-order:markers fill stroke"
         d="m -190.76127,178.22026 h 49.94328 v -62.10327 l -57.30022,4.97027 z"
         id="path28"
         clip-path="url(#clipPath6)"
         transform="translate(0,383.98149)" /><path
         style="fill:#d98fed;fill-opacity:1;stroke:none;stroke-width:0.600001;stroke-linecap:round;stroke-linejoin:bevel;stroke-dasharray:none;paint-order:markers fill stroke"
         d="m -54.478659,178.22026 h -49.943281 v -62.10327 l 57.300221,4.97027 z"
         id="path29"
         clip-path="url(#clipPath8)"
         transform="translate(0,383.98149)" /><path
         style="opacity:0.209449;fill:#000000;fill-opacity:1;stroke:none;stroke-width:0.600001;stroke-linecap:round;stroke-linejoin:bevel;stroke-dasharray:none;paint-order:markers fill stroke"
         d="m -152.32239,116.11699 105.689187,47.29034 7.644786,-49.11776 -128.241313,-18.920845 z"
         id="path30"
         clip-path="url(#clipPath13)"
         transform="translate(0,383.98149)" /><path
         id="path31"
         style="fill:#f1d7be;fill-opacity:1;stroke:none;stroke-width:0.600001;stroke-linecap:round;stroke-linejoin:bevel;paint-order:markers fill stroke"
         d="m -156.63927,450.94226 c 0,-18.78834 15.23096,-34.0193 34.0193,-34.0193 18.78835,-10e-6 34.019311,15.23096 34.019311,34.0193 0,0 0.89737,55.4779 -34.019301,55.88333 -34.91667,0.40543 -34.01931,-55.88333 -34.01931,-55.88333 z"
         sodipodi:nodetypes="csczc" /><path
         style="opacity:1;fill:#d4aa00;fill-opacity:1;stroke:none;stroke-width:0.600001;stroke-linecap:round;stroke-linejoin:bevel;stroke-dasharray:none;paint-order:markers fill stroke"
         d="m -154.44812,467.98554 c 0,0 1.82389,-12.14716 9.18239,-17.47098 7.3585,-5.32381 26.76315,-1.06069 35.09413,-7.22975 8.33098,-6.16907 9.90825,-18.59905 9.90825,-18.59905 0,0 -22.73205,-25.9287 -45.00238,-4.09336 -19.90966,19.52078 -9.18239,47.39314 -9.18239,47.39314 z"
         id="path32"
         sodipodi:nodetypes="czzcsc" /><path
         style="opacity:1;fill:#d4aa00;fill-opacity:1;stroke:none;stroke-width:0.600001;stroke-linecap:round;stroke-linejoin:bevel;stroke-dasharray:none;paint-order:markers fill stroke"
         d="m -140.00714,53.516244 c -12.89963,-2.063902 -10.89139,26.361015 -17.16304,40.002038 l -4.59483,-51.489112 17.51234,-1.324901 z"
         id="path33"
         sodipodi:nodetypes="ccccc"
         clip-path="url(#clipPath24)"
         transform="matrix(-1,0,0,1,-244.51602,383.98149)" /><ellipse
         style="opacity:1;fill:#f1d7be;fill-opacity:1;stroke:none;stroke-width:0.600001;stroke-linecap:round;stroke-linejoin:bevel;stroke-dasharray:none;paint-order:markers fill stroke"
         id="ellipse32"
         cx="-90.251747"
         cy="469.05264"
         rx="4.8651128"
         ry="7.8719182" /><ellipse
         style="opacity:1;fill:#f1d7be;fill-opacity:1;stroke:none;stroke-width:0.600001;stroke-linecap:round;stroke-linejoin:bevel;stroke-dasharray:none;paint-order:markers fill stroke"
         id="ellipse33"
         cx="-155.02652"
         cy="469.05264"
         rx="4.8651128"
         ry="7.8719182" /></g></g></svg>
